<svg xmlns="http://www.w3.org/2000/svg" width="154" height="89" viewBox="0 0 154 89" fill="none">
<path d="M106.615 26.8056L90.1616 12.2486L76.9992 0.223267L63.8368 12.2486L47.3838 26.8056C47.3838 26.8056 52.6487 35.0334 59.2299 41.9955C63.8368 48.3246 70.418 53.3879 76.9992 53.3879C82.9223 53.3879 89.5035 48.3246 94.7684 41.9955C102.008 35.0334 106.615 26.8056 106.615 26.8056Z" fill="#FFD400"/>
<path d="M154 41.5737C112.344 41.5737 79.5246 63.2565 77 64.9244C73.8443 62.7005 41.6557 41.5737 0 41.5737C0 41.5737 45.4426 88.2752 77 88.8311C108.557 88.8311 154 41.5737 154 41.5737Z" fill="#FFD400"/>
</svg>
