<svg xmlns="http://www.w3.org/2000/svg" xmlns:xlink="http://www.w3.org/1999/xlink" width="36.225" height="35.402" viewBox="0 0 36.225 35.402">
  <defs>
    <clipPath id="clip-path">
      <rect id="Rectangle_2" data-name="Rectangle 2" width="36.225" height="35.402" fill="none" />
    </clipPath>
  </defs>
  <g id="Group_148" data-name="Group 148" transform="translate(0 -0.002)">
    <g id="Group_1" data-name="Group 1" transform="translate(0 0.002)" clip-path="url(#clip-path)">
      <path id="Path_1" data-name="Path 1" d="M53.675,114.339a93.675,93.675,0,0,1,12.574,1.195,1.319,1.319,0,0,1,1.1,1.312v.938a1.333,1.333,0,0,1-.574,1.1,12.013,12.013,0,0,1-6.764,2.091H47.334a12.012,12.012,0,0,1-6.764-2.091,1.333,1.333,0,0,1-.574-1.1v-.938a1.319,1.319,0,0,1,1.1-1.312,93.675,93.675,0,0,1,12.574-1.195" transform="translate(-35.816 -102.39)" fill="#f9b31a" />
      <path id="Path_2" data-name="Path 2" d="M56.466,114.339a99,99,0,0,1,12.275,1.075,1.22,1.22,0,0,1,1.078,1.181v.844a1.176,1.176,0,0,1-.56.993,12.441,12.441,0,0,1-6.6,1.881H50.276a12.44,12.44,0,0,1-6.6-1.881,1.175,1.175,0,0,1-.561-.993V116.6a1.22,1.22,0,0,1,1.078-1.181,99,99,0,0,1,12.275-1.075" transform="translate(-38.607 -102.39)" fill="#fbbf1d" />
      <rect id="Rectangle_1" data-name="Rectangle 1" width="25.403" height="2.655" transform="translate(5.157 11.949)" fill="#f9b31a" />
      <path id="Path_3" data-name="Path 3" d="M62.847,7.187a14.145,14.145,0,0,1,9.563,0,12.651,12.651,0,0,1,7.268,11.78v1.77s-1.794.6-7.268.812c-1.387.045-2.973.073-4.782.073s-3.4-.028-4.782-.073c-5.475-.212-7.268-.812-7.268-.812v-1.77a12.652,12.652,0,0,1,7.268-11.78" transform="translate(-49.771 -5.69)" fill="#fdc920" />
      <path id="Path_4" data-name="Path 4" d="M131.815,4.447a16.6,16.6,0,0,1,4.56.635V19.848c-1.334.041-2.845.066-4.56.066s-3.226-.025-4.56-.066V5.082a16.6,16.6,0,0,1,4.56-.635" transform="translate(-113.956 -3.982)" fill="#fdc920" />
      <path id="Path_5" data-name="Path 5" d="M121.673,10.519V25.285l-.222-.007-.43-.018V11.112Z" transform="translate(-108.374 -9.42)" fill="#fbbf1d" />
      <path id="Path_6" data-name="Path 6" d="M215.167,11.112V25.261l-.429.018-.222.007V10.519Z" transform="translate(-192.098 -9.42)" fill="#fbbf1d" />
      <path id="Path_7" data-name="Path 7" d="M80.292,25.495a.547.547,0,0,1,.846.382v3.851a1.6,1.6,0,0,1-1.527,1.517,1.616,1.616,0,0,1-1.86-1.453V28.548a2.537,2.537,0,0,1,1.011-1.989,15.989,15.989,0,0,1,1.53-1.064" transform="translate(-69.626 -22.754)" fill="#fbbf1d" />
      <path id="Path_8" data-name="Path 8" d="M233.985,26.559A2.537,2.537,0,0,1,235,28.548v1.18a1.6,1.6,0,0,1-1.527,1.517,1.616,1.616,0,0,1-1.86-1.454V25.877a.547.547,0,0,1,.846-.382,15.928,15.928,0,0,1,1.53,1.064" transform="translate(-207.404 -22.754)" fill="#fbbf1d" />
      <path id="Path_9" data-name="Path 9" d="M233.985,26.559A2.537,2.537,0,0,1,235,28.548v1.18a1.6,1.6,0,0,1-1.527,1.517,1.616,1.616,0,0,1-1.86-1.454V25.877a.547.547,0,0,1,.846-.382,15.928,15.928,0,0,1,1.53,1.064" transform="translate(-207.404 -22.754)" fill="#fbbf1d" />
      <path id="Path_10" data-name="Path 10" d="M83.226,26.569a15.97,15.97,0,0,1,1.53-1.064.58.58,0,0,1,.272-.084,2.885,2.885,0,0,1,.053.424v3.5a1.322,1.322,0,0,1-1.057,1.379A1.24,1.24,0,0,1,82.736,29.4V27.51a3.5,3.5,0,0,1,.038-.5,2.835,2.835,0,0,1,.452-.446" transform="translate(-74.09 -22.765)" fill="#ffd038" />
      <path id="Path_11" data-name="Path 11" d="M236.923,25.507a15.97,15.97,0,0,1,1.53,1.064,2.822,2.822,0,0,1,.452.445,3.5,3.5,0,0,1,.038.5v1.836a1.322,1.322,0,0,1-1.057,1.378A1.239,1.239,0,0,1,236.6,29.4V25.846a2.877,2.877,0,0,1,.053-.423.578.578,0,0,1,.272.084" transform="translate(-211.872 -22.766)" fill="#ffd038" />
      <path id="Path_12" data-name="Path 12" d="M133.072,1.25l.479-.515-.072.469L132.1,10.192c-.257,1.627-.429,4.3-.517,6.359l-.642-.016a56.639,56.639,0,0,1,.61-6.343Z" transform="translate(-117.255 -0.658)" fill="#fbbf1d" />
      <path id="Path_13" data-name="Path 13" d="M185.911,1.2l-.072-.469.479.515,1.523,8.942a56.642,56.642,0,0,1,.61,6.343l-.642.016c-.088-2.054-.26-4.732-.517-6.359Z" transform="translate(-166.418 -0.658)" fill="#fbbf1d" />
      <path id="Path_14" data-name="Path 14" d="M139.046.077C139.56.027,140.081,0,140.609,0s1.049.027,1.563.077l1.454,9.458c.257,1.627.428,4.3.516,6.359-1.071.025-2.244.039-3.533.039s-2.462-.014-3.533-.039c.088-2.054.26-4.732.517-6.359Z" transform="translate(-122.751 0)" fill="#fdc920" />
      <path id="Path_15" data-name="Path 15" d="M137.594,55.041l.283-1.84a2.759,2.759,0,0,1,5.467,0l.283,1.84c.257,1.627.428,4.3.516,6.359-1.071.025-2.244.039-3.533.039s-2.462-.014-3.533-.039c.088-2.055.259-4.732.517-6.359" transform="translate(-122.752 -45.507)" fill="#ffd038" />
      <path id="Path_16" data-name="Path 16" d="M17.308,141.995s-.066-1.759-.247-4.85c-.215-3.674-1.033-4.874-3.086-6.323l-5.933-4.064A1.44,1.44,0,0,0,6.3,129.034l4.354,4.112a.714.714,0,0,1,.225.985.73.73,0,0,1-1.011.242L3.9,129.589l-.574-9.206a1.441,1.441,0,1,0-2.877.18L1.113,131.2a1.43,1.43,0,0,0,.572,1.054l-.006,0,7.116,7.2-.236,2.541Z" transform="translate(-0.404 -106.592)" fill="#164192" />
      <path id="Path_17" data-name="Path 17" d="M193.627,141.994l-.236-2.541,7.117-7.2-.006,0a1.432,1.432,0,0,0,.572-1.054l.659-10.634a1.441,1.441,0,1,0-2.877-.18l-.574,9.206-5.96,4.784a.73.73,0,0,1-1.011-.242.714.714,0,0,1,.225-.985l4.354-4.112a1.44,1.44,0,0,0-1.745-2.276l-5.933,4.064c-2.053,1.449-2.871,2.649-3.086,6.323-.181,3.09-.247,4.85-.247,4.85Z" transform="translate(-165.558 -106.592)" fill="#164192" />
    </g>
  </g>
</svg>
  